<svg width="512" height="512" viewBox="0 0 512 512" fill="none" xmlns="http://www.w3.org/2000/svg">
  <!-- Dark green background -->
  <rect width="512" height="512" fill="#0C2312" rx="96"/>
  
  <!-- SwiftGate "S" Letter Mark -->
  <path d="M256 128C194.144 128 144 178.144 144 240C144 264.8 152.16 287.744 165.888 306.56L165.12 307.2C151.392 288.384 143.232 265.44 143.232 240.64C143.232 178.784 193.376 128.64 255.232 128.64C289.024 128.64 319.488 143.36 340.224 166.4L256 240L256 128Z" fill="#1A4D2E"/>
  
  <path d="M256 384C317.856 384 368 333.856 368 272C368 247.2 359.84 224.256 346.112 205.44L346.88 204.8C360.608 223.616 368.768 246.56 368.768 271.36C368.768 333.216 318.624 383.36 256.768 383.36C222.976 383.36 192.512 368.64 171.776 345.6L256 272L256 384Z" fill="#8B7355"/>
  
  <!-- Accent line -->
  <path d="M144 256H368" stroke="#F5F3ED" stroke-width="8" stroke-linecap="round"/>
</svg>
